<svg version="1.1" id="Layer_1" xmlns="http://www.w3.org/2000/svg" xmlns:xlink="http://www.w3.org/1999/xlink" x="0px" y="0px"
	 width="100%" viewBox="0 0 514 906" enable-background="new 0 0 514 906" xml:space="preserve">
<path fill="#BF0302" opacity="1.000000" stroke="none" 
	d="
M240.000000,1.000001 
	C240.444443,1.000000 240.888901,1.000000 241.582748,1.462306 
	C242.495163,24.888752 243.636856,47.850956 243.729919,70.817398 
	C243.991180,135.296295 243.666473,199.777496 243.910492,264.256531 
	C243.986664,284.383911 245.546753,304.505188 245.648102,324.633179 
	C245.711304,337.190552 244.865921,349.546387 237.994186,361.173340 
	C230.768173,373.399719 238.356201,387.381104 252.497086,390.530731 
	C262.080505,392.665283 272.625305,388.483551 277.688751,380.540558 
	C282.023499,373.740631 280.637299,363.858337 275.396942,355.765472 
	C273.006470,352.073730 271.390900,347.239502 271.246368,342.863251 
	C270.911743,332.732208 271.964630,322.564697 271.971008,312.411652 
	C272.036224,208.607803 272.004578,104.803894 272.000000,1.000000 
	C272.000000,1.000000 272.500000,1.000000 272.839661,1.331840 
	C279.047394,13.181408 284.565460,24.894968 290.871948,36.167423 
	C298.799591,50.337482 306.256744,64.981041 315.930145,77.914513 
	C330.211761,97.009186 350.285553,109.843109 370.963989,121.017029 
	C393.895050,133.408218 417.680481,144.208557 440.942108,156.001022 
	C458.728027,165.017593 474.223724,176.708511 483.984070,194.796844 
	C492.259644,210.133621 497.878784,226.403549 501.870667,243.294067 
	C510.306488,278.988190 512.396240,315.361969 512.694519,351.828949 
	C512.904236,377.465729 512.254456,403.129395 511.240601,428.751465 
	C509.891571,462.845184 508.342072,496.948578 505.857117,530.973206 
	C504.335754,551.804199 497.751190,571.119629 484.321075,587.914307 
	C470.305389,605.441162 453.528778,620.077148 437.356842,635.392090 
	C429.833221,642.516968 422.621796,649.971558 415.268890,657.276733 
	C415.516510,657.677063 415.764130,658.077454 416.011749,658.477844 
	C444.572601,658.477844 473.133453,658.477844 502.288818,658.477844 
	C504.049469,738.440247 503.963470,817.930481 502.319061,897.630493 
	C500.176056,897.733459 498.871002,897.851135 497.565979,897.851074 
	C337.580505,897.844116 177.595032,897.795410 17.609739,897.956299 
	C12.239599,897.961670 11.416662,896.341309 11.426119,891.520813 
	C11.571595,817.361023 11.526362,743.200928 11.535227,669.040894 
	C11.535425,667.380127 11.650050,665.719421 11.975810,663.867004 
	C12.047431,662.763550 11.854542,661.851746 11.615150,660.511658 
	C13.621652,659.538696 15.671476,658.533264 17.728144,658.519104 
	C44.170292,658.336670 70.613411,658.295776 97.211304,658.407837 
	C97.737991,658.406006 98.109665,658.215393 98.481354,658.024780 
	C97.996231,657.679810 97.511078,657.334900 96.755859,656.793335 
	C87.114594,647.381958 77.521179,638.380249 68.427940,628.898865 
	C56.829674,616.805603 44.847782,604.951477 34.441101,591.872498 
	C16.146635,568.880249 9.988702,541.335266 8.109199,512.688110 
	C6.169294,483.120422 4.653295,453.525116 2.837024,423.948944 
	C2.509475,418.615143 1.626529,413.315430 1.000001,408.000000 
	C1.000000,381.979095 1.000000,355.958221 1.370366,329.252747 
	C2.499577,318.789154 3.093325,308.993958 4.048713,299.234192 
	C6.743138,271.709198 11.804760,244.701569 20.817543,218.437378 
	C31.289661,187.920547 49.912594,165.160782 80.246185,152.655319 
	C95.260460,146.465500 110.292656,140.236740 124.911125,133.184753 
	C168.318054,112.245193 201.990768,80.801811 224.356003,37.946449 
	C230.523636,26.128290 234.836243,13.342050 240.000000,1.000001 
M227.948730,833.883850 
	C227.948730,833.883850 227.780579,833.909302 227.014618,833.931580 
	C225.220505,834.587585 223.083679,834.841187 221.719833,836.002502 
	C220.046753,837.427124 216.465012,838.949463 219.719162,842.659851 
	C193.294571,863.198120 160.779495,860.761230 139.020203,835.411804 
	C116.887917,809.627930 111.273064,779.564331 120.690056,747.113647 
	C129.697510,716.074219 156.537674,694.881042 191.216553,698.963135 
	C199.884094,699.983459 199.869751,699.694031 200.844223,708.147461 
	C201.107544,710.431763 201.470291,712.785645 202.296661,714.909424 
	C205.283585,722.585754 211.268585,725.670410 218.466843,723.495056 
	C224.943481,721.537842 227.631424,715.928772 225.694260,707.702881 
	C222.413223,693.770386 214.003326,684.937744 199.719299,682.034668 
	C172.627365,676.528503 137.990768,690.744934 122.125763,713.943237 
	C97.897110,749.371094 98.323921,802.716797 122.907486,839.381897 
	C148.134613,877.006897 191.699966,877.197754 219.531555,861.749207 
	C234.398590,853.496887 243.810699,840.098389 250.576309,825.057007 
	C258.336304,807.804993 264.939331,790.036194 272.287933,772.594238 
	C276.936310,761.561157 282.563965,751.039246 289.306793,743.261108 
	C295.786469,743.587708 301.106201,744.844727 305.974701,743.863220 
	C312.817627,742.483765 317.699585,734.233093 316.883026,727.809265 
	C316.027222,721.076660 311.589630,717.120850 303.385529,716.365417 
	C293.950195,715.496582 286.824249,720.299438 281.732300,727.401978 
	C276.248505,735.050903 271.715698,743.416321 267.158417,751.684387 
	C263.231781,758.808228 259.926697,766.272522 256.167664,773.493042 
	C255.478317,774.817139 253.667435,776.802185 252.820541,776.601196 
	C246.424789,775.083496 240.022430,773.399658 233.911407,771.023682 
	C232.527481,770.485596 231.004425,766.388306 231.697784,765.020203 
	C240.249939,748.145447 248.213913,730.869690 260.758179,716.382324 
	C271.629669,703.826782 284.606323,695.241272 301.927277,695.270508 
	C314.644135,695.292053 322.089752,701.213013 322.777954,713.780640 
	C323.354248,724.304749 323.428955,735.260132 321.172119,745.459473 
	C314.517212,775.534851 299.219116,801.999695 283.856964,828.285950 
	C278.260315,837.862305 270.932068,843.937988 258.454742,840.343323 
	C252.055542,838.499756 248.104187,841.969360 246.456360,848.519287 
	C245.105072,853.890442 246.817261,858.435730 250.644470,862.101685 
	C254.667374,865.955261 259.581116,867.008179 264.942627,865.377686 
	C273.515045,862.770752 279.482544,856.697815 284.341614,849.671326 
	C290.865295,840.237732 297.104004,830.577576 302.911316,820.689514 
	C306.163300,815.152405 310.434723,812.665283 316.600922,813.063171 
	C334.353607,814.208862 352.094543,816.066772 369.857544,816.296997 
	C378.575470,816.409973 381.582733,820.797913 384.159363,827.535034 
	C387.537201,836.367126 391.093567,845.146606 394.998077,853.755981 
	C397.505585,859.284973 401.176208,864.259827 407.278809,866.232178 
	C412.963013,868.069275 418.797089,868.326355 423.830505,864.200684 
	C427.872681,860.887512 428.634216,856.302002 427.732300,851.504822 
	C425.895630,841.736084 418.037201,836.213867 408.057800,837.353333 
	C406.651184,837.513916 404.463989,838.062317 403.915771,837.389771 
	C398.918945,831.259705 394.349915,824.836365 394.195496,816.270386 
	C404.770508,814.105774 415.040375,812.195007 421.306915,801.762207 
	C419.975677,801.762207 419.320007,801.723450 418.670044,801.768188 
	C410.375427,802.338013 402.086884,803.019348 393.785461,803.458374 
	C389.323792,803.694458 386.479462,802.251038 384.788666,797.204224 
	C376.503021,772.471985 367.785400,747.881531 358.965576,723.332581 
	C355.018127,712.345154 349.965271,701.921753 341.473816,693.477417 
	C326.770081,678.855347 291.344971,676.113708 272.782684,686.705750 
	C257.082642,695.664551 246.439911,709.527954 237.460175,724.618652 
	C227.607101,741.176941 219.126419,758.561829 209.048050,774.972595 
	C202.305664,785.951355 193.864212,795.893005 186.081192,806.221985 
	C184.217346,808.695496 182.347794,809.489014 179.068619,807.176208 
	C175.956085,804.981018 171.794601,803.838379 167.936966,803.228577 
	C160.831909,802.105469 155.206894,806.773865 154.664108,813.508789 
	C154.023422,821.458618 161.759521,829.326843 170.658493,830.002869 
	C180.163971,830.724915 188.690369,828.195374 195.259521,821.370239 
	C200.633820,815.786499 205.347809,809.505066 209.881897,803.193420 
	C213.907120,797.590027 217.282303,791.519714 220.909393,785.711609 
	C230.088409,789.744324 238.679962,793.518982 247.558960,797.419922 
	C242.348663,810.385620 237.270813,822.633423 228.288757,833.137024 
	C228.082947,833.278503 227.957581,833.472046 227.948730,833.883850 
M49.957607,471.956635 
	C67.403854,461.046844 84.850098,450.137054 102.527290,439.082825 
	C102.527290,447.659058 102.714874,455.791351 102.479431,463.911438 
	C102.190323,473.882050 101.244545,483.840271 101.174614,493.808044 
	C101.134239,499.563721 103.070450,504.963409 108.616508,508.901733 
	C108.821213,504.383118 109.025909,499.864532 109.234894,495.251526 
	C125.902275,493.579315 142.076324,491.956604 158.297775,490.329163 
	C160.874496,495.814972 159.651291,502.677826 165.698013,506.674164 
	C166.240356,505.170868 166.881851,504.128204 166.968124,503.041443 
	C167.980286,490.291443 168.786911,477.524261 169.894531,464.783051 
	C170.985672,452.231384 171.817673,439.613556 173.894531,427.214233 
	C174.651535,422.694763 174.684402,420.031464 170.644974,417.864746 
	C169.685425,417.350067 168.910446,416.491302 168.214935,415.924713 
	C152.082977,427.201965 133.850082,424.696655 115.073822,426.500580 
	C121.758301,418.513489 127.482620,411.649445 133.234375,404.808502 
	C138.029343,399.105560 143.943146,395.303711 151.533600,394.854858 
	C160.982819,394.296082 170.457001,394.142487 179.901443,393.524170 
	C191.962906,392.734528 204.005432,391.655579 216.306412,390.681488 
	C213.407562,382.091064 207.750061,379.055664 200.313522,380.941040 
	C193.397125,382.694611 186.466232,384.548889 179.429794,385.631042 
	C170.676559,386.977203 161.808426,387.576263 152.989914,388.497986 
	C152.625412,387.841827 152.260895,387.185699 151.896393,386.529541 
	C156.782227,381.041443 161.629227,375.518127 166.565689,370.075989 
	C170.802231,365.405457 175.189468,360.871033 179.392609,356.171387 
	C180.206467,355.261353 181.202271,353.592621 180.880066,352.740479 
	C179.054932,347.913300 176.854324,343.228058 174.263931,337.312469 
	C168.614563,345.949951 167.832123,355.373413 159.878754,360.963257 
	C156.847031,356.160156 152.236633,354.679565 146.934158,355.210236 
	C141.859253,355.718140 136.809875,356.480804 130.873322,357.244110 
	C131.384872,352.641998 131.593094,348.701843 132.298325,344.852753 
	C133.786606,336.729736 129.365616,329.967834 120.705643,328.200134 
	C121.514503,333.437927 122.435135,338.487305 123.040108,343.574219 
	C123.642258,348.637421 123.927460,353.738342 124.381721,359.183350 
	C111.856339,360.220764 100.161674,361.189331 88.393784,362.164001 
	C90.031029,368.568085 93.408073,370.637634 99.940277,369.707092 
	C106.503426,368.772095 113.059303,367.727753 119.654358,367.125031 
	C120.942657,367.007294 123.550255,368.642761 123.590553,369.556061 
	C123.915932,376.931793 123.772980,384.328217 123.772980,391.697266 
	C98.195999,393.000885 73.793228,394.244629 49.159595,395.500122 
	C51.820187,403.841949 56.811508,406.715149 66.370140,405.511047 
	C78.236618,404.016174 90.033325,401.947235 101.912315,400.578949 
	C110.383759,399.603149 118.941162,399.373657 127.460205,398.811096 
	C127.787308,399.493622 128.114410,400.176178 128.441513,400.858704 
	C121.391823,407.881226 114.342140,414.903748 106.673851,422.542480 
	C104.572937,418.409302 103.144867,415.599823 101.716797,412.790344 
	C101.175041,412.913452 100.633286,413.036560 100.091530,413.159637 
	C100.271530,416.485657 100.132828,419.869049 100.718750,423.121948 
	C101.338020,426.559998 100.811203,429.195312 98.006729,431.459259 
	C93.616203,435.003571 89.499825,438.893219 85.048874,442.355774 
	C73.896820,451.031372 62.583622,459.500153 51.457859,468.208740 
	C50.374310,469.056885 50.143703,470.994690 49.111557,472.516815 
	C48.895931,472.469482 48.680305,472.422180 48.464684,472.374847 
	C48.801453,472.404358 49.138218,472.433838 49.957607,471.956635 
M348.960876,482.375336 
	C346.391479,489.858002 343.643494,497.239716 336.777832,503.777649 
	C339.823914,452.957794 335.732208,403.126404 338.874756,353.714203 
	C346.809509,352.551453 353.821960,351.523834 361.979370,350.328461 
	C360.457642,347.709991 359.787842,345.269989 358.187927,344.031342 
	C351.861267,339.133331 344.862976,342.617889 337.740784,343.371399 
	C337.508148,341.422424 337.098389,339.806671 337.159882,338.209045 
	C337.543793,328.235504 338.240204,318.269867 338.423981,308.294067 
	C338.579590,299.846069 338.803925,291.316620 337.844818,282.955475 
	C336.988617,275.491180 332.445984,271.273865 326.665009,270.386688 
	C332.665863,295.351135 329.525909,320.607910 330.172638,345.588806 
	C320.258240,346.733856 311.056000,347.796692 301.958099,348.847473 
	C301.549652,353.012970 302.623993,355.969269 306.223999,356.850983 
	C309.063171,357.546387 312.145966,357.669067 315.079437,357.462402 
	C319.968994,357.117920 324.825684,356.306427 329.846588,355.672577 
	C329.980408,356.874237 330.108734,357.520996 330.116425,358.169189 
	C330.387238,380.979645 330.990448,403.792969 330.808380,426.600006 
	C330.635803,448.215729 329.686829,469.826447 328.973450,491.435883 
	C328.766022,497.719574 327.300964,504.113403 331.293274,509.830048 
	C334.269958,514.092407 335.853973,514.298523 338.558899,510.051544 
	C343.197327,502.768707 347.926422,495.476105 351.761200,487.761993 
	C361.811707,467.544220 367.746765,445.891510 373.009186,424.036133 
	C373.332153,422.694794 374.437561,420.733551 375.487213,420.510345 
	C381.114838,419.313538 386.840240,418.576691 393.930206,417.460846 
	C391.364105,437.534668 389.090851,456.500183 386.388794,475.404449 
	C385.880005,478.964203 383.662109,482.279694 382.297394,485.553070 
	C375.710663,484.116943 376.654419,474.828003 369.216400,475.153259 
	C373.801910,486.819641 378.243378,498.119537 383.121613,510.530670 
	C384.281860,508.226776 384.758118,507.362427 385.162598,506.465668 
	C390.982056,493.563202 392.784332,479.705017 395.018616,465.914093 
	C397.779999,448.869751 400.767212,431.857147 404.005157,414.897339 
	C405.200653,408.635498 403.630524,404.434387 397.522095,401.316559 
	C390.990540,411.103790 384.799774,413.836243 376.538269,411.488342 
	C375.752777,402.675476 375.969513,394.096130 373.935486,386.088501 
	C372.537628,380.585419 373.034729,377.353607 376.740143,373.141022 
	C389.010071,359.191803 396.067871,342.250366 402.562836,325.121460 
	C403.729980,322.043365 405.052582,320.884216 408.450134,320.690887 
	C414.067841,320.371185 419.613922,318.952606 425.228668,318.364716 
	C428.760406,317.994934 432.362366,318.295807 436.504059,318.295807 
	C433.446869,333.180817 433.342072,347.811066 426.073822,361.896942 
	C421.921234,357.295715 418.225769,353.200989 414.530304,349.106262 
	C414.044403,349.432159 413.558472,349.758057 413.072571,350.083984 
	C417.559845,361.737488 422.047119,373.390991 426.534393,385.044525 
	C427.298309,384.978149 428.062256,384.911774 428.826172,384.845398 
	C430.842926,379.098541 433.419281,373.480072 434.773010,367.581055 
	C439.078461,348.819977 442.944946,329.957916 446.943420,311.126892 
	C447.993744,306.180389 446.211060,302.812622 441.220612,301.304565 
	C437.276733,312.598480 420.691345,313.915649 406.329041,310.572754 
	C408.118683,304.015656 409.799500,297.441437 411.719055,290.937714 
	C413.751160,284.052551 409.122711,274.213074 402.912537,271.471466 
	C401.919952,281.964081 401.309357,292.746124 399.778748,303.395905 
	C398.211182,314.302643 397.810852,314.137268 386.721802,314.747101 
	C379.194550,315.161041 371.686981,315.933075 363.934784,316.564178 
	C365.791168,323.140106 368.450134,324.851196 374.720642,324.347443 
	C381.092590,323.835510 387.455750,323.213928 393.900574,322.633392 
	C393.900330,336.516754 381.941803,358.345581 358.530334,387.751648 
	C361.871094,386.089905 364.164581,384.949097 367.631042,383.224823 
	C366.886444,394.207581 366.229492,403.897858 365.579224,413.489197 
	C357.336700,414.525360 350.156097,415.428070 342.115417,416.438873 
	C343.210602,418.880402 343.756744,421.948944 344.805664,422.131622 
	C350.965698,423.204803 357.243073,423.604492 363.886505,424.271973 
	C362.168732,443.654480 354.829803,462.421417 348.960876,482.375336 
M418.652618,484.190369 
	C427.691223,463.689240 434.038483,442.416229 437.262451,420.212219 
	C437.500244,418.574463 438.856384,416.103210 440.127594,415.791107 
	C444.613678,414.689728 449.276184,414.222168 453.897400,413.785492 
	C457.033600,413.489197 458.222137,414.949219 457.792816,418.330719 
	C456.367676,429.555481 455.443390,440.845306 453.938843,452.058105 
	C452.261169,464.561371 449.925140,476.947449 444.420044,489.460175 
	C439.218842,484.797424 434.377686,480.457428 429.536530,476.117462 
	C433.893524,488.368042 437.335297,500.857391 446.007172,511.794250 
	C447.406525,508.653290 448.935425,506.230988 449.584442,503.592255 
	C452.596344,491.346710 455.611450,479.092255 458.161713,466.745209 
	C462.020782,448.061615 465.313232,429.260315 469.240601,410.591919 
	C470.469818,404.749084 468.527527,399.725220 462.640686,397.331726 
	C457.135040,406.716888 450.785248,409.257721 440.343292,406.002472 
	C441.915833,396.707825 440.068970,388.294281 432.680328,381.514282 
	C431.704010,388.817261 431.031342,396.052612 431.080566,403.283020 
	C431.111389,407.803894 429.120087,408.933655 425.162292,409.020142 
	C419.575989,409.142212 413.997345,409.615051 407.657043,409.981812 
	C412.258972,422.064270 421.754272,416.638123 429.288269,417.219879 
	C427.603668,451.455566 412.809570,481.511536 401.790680,512.625671 
	C402.312531,512.854980 402.834381,513.084351 403.356262,513.313721 
	C408.318939,503.818329 413.281647,494.322906 418.652618,484.190369 
M74.145164,326.903259 
	C84.210579,325.556793 93.994209,321.660614 103.979034,323.075195 
	C106.184792,331.296814 99.691574,340.912598 108.483482,347.055908 
	C109.152084,346.973206 109.820686,346.890533 110.489288,346.807831 
	C110.489288,338.589783 110.489288,330.371704 110.489288,321.442871 
	C121.966850,320.586060 132.702744,319.525085 143.464111,319.080841 
	C149.689896,318.823883 149.812378,319.587097 148.134232,325.832367 
	C146.683273,331.232086 145.584274,336.726379 144.329712,342.178864 
	C144.943817,342.388794 145.557922,342.598724 146.172043,342.808655 
	C147.203491,341.408203 148.576294,340.144745 149.203629,338.582031 
	C151.241730,333.505005 153.116714,328.354889 154.840897,323.161957 
	C156.119965,319.309662 158.164139,317.038940 162.598724,316.833435 
	C170.065475,316.487427 177.520279,315.745209 184.958679,314.965210 
	C192.184845,314.207428 199.384033,313.192657 206.595078,312.290741 
	C206.808243,311.714630 207.021423,311.138489 207.234589,310.562347 
	C204.617645,308.526642 202.247238,305.349792 199.326813,304.718872 
	C194.786621,303.738007 189.805801,303.991730 185.131439,304.617004 
	C177.208099,305.676849 169.378098,307.434509 160.800781,309.030579 
	C167.453415,288.971527 166.074585,281.723907 154.960983,279.012024 
	C154.960983,285.481659 155.349854,291.771393 154.873245,297.994843 
	C154.084442,308.295135 152.189590,309.967682 142.144745,311.101166 
	C141.153748,311.212952 140.179581,311.503082 139.187805,311.574646 
	C129.980087,312.238953 120.770233,312.873474 111.415123,313.526825 
	C110.618584,301.686554 114.737297,289.184753 99.557251,283.690125 
	C101.441826,294.028534 103.210251,303.729736 105.094841,314.068207 
	C88.412682,317.359375 71.384819,312.877991 55.394737,319.244324 
	C59.433270,327.829865 66.347282,327.364105 74.145164,326.903259 
z"/>
<path fill="#FEFDFD" opacity="1.000000" stroke="none" 
	d="
M97.056290,658.219055 
	C70.613411,658.295776 44.170292,658.336670 17.728144,658.519104 
	C15.671476,658.533264 13.621652,659.538696 11.460575,660.740479 
	C11.472102,662.284607 11.591702,663.171631 11.711301,664.058655 
	C11.650050,665.719421 11.535425,667.380127 11.535227,669.040894 
	C11.526362,743.200928 11.571595,817.361023 11.426119,891.520813 
	C11.416662,896.341309 12.239599,897.961670 17.609739,897.956299 
	C177.595032,897.795410 337.580505,897.844116 497.565979,897.851074 
	C498.871002,897.851135 500.176056,897.733459 502.319061,897.630493 
	C503.963470,817.930481 504.049469,738.440247 502.288818,658.477844 
	C473.133453,658.477844 444.572601,658.477844 416.011749,658.477844 
	C415.764130,658.077454 415.516510,657.677063 415.268890,657.276733 
	C422.621796,649.971558 429.833221,642.516968 437.356842,635.392090 
	C453.528778,620.077148 470.305389,605.441162 484.321075,587.914307 
	C497.751190,571.119629 504.335754,551.804199 505.857117,530.973206 
	C508.342072,496.948578 509.891571,462.845184 511.240601,428.751465 
	C512.254456,403.129395 512.904236,377.465729 512.694519,351.828949 
	C512.396240,315.361969 510.306488,278.988190 501.870667,243.294067 
	C497.878784,226.403549 492.259644,210.133621 483.984070,194.796844 
	C474.223724,176.708511 458.728027,165.017593 440.942108,156.001022 
	C417.680481,144.208557 393.895050,133.408218 370.963989,121.017029 
	C350.285553,109.843109 330.211761,97.009186 315.930145,77.914513 
	C306.256744,64.981041 298.799591,50.337482 290.871948,36.167423 
	C284.565460,24.894968 279.047394,13.181408 273.089661,1.331840 
	C353.650330,1.000000 434.300659,1.000000 514.975464,1.000000 
	C514.975464,302.922516 514.975464,604.845032 514.975464,906.883789 
	C343.778900,906.883789 172.557709,906.883789 1.000000,906.883789 
	C1.000000,740.979248 1.000000,574.958313 1.000001,408.468658 
	C1.626529,413.315430 2.509475,418.615143 2.837024,423.948944 
	C4.653295,453.525116 6.169294,483.120422 8.109199,512.688110 
	C9.988702,541.335266 16.146635,568.880249 34.441101,591.872498 
	C44.847782,604.951477 56.829674,616.805603 68.427940,628.898865 
	C77.521179,638.380249 87.114594,647.381958 96.749756,657.100952 
	C97.027916,657.809814 97.042107,658.014404 97.056290,658.219055 
z"/>
<path fill="#FFFEFE" opacity="1.000000" stroke="none" 
	d="
M239.531342,1.000001 
	C234.836243,13.342050 230.523636,26.128290 224.356003,37.946449 
	C201.990768,80.801811 168.318054,112.245193 124.911125,133.184753 
	C110.292656,140.236740 95.260460,146.465500 80.246185,152.655319 
	C49.912594,165.160782 31.289661,187.920547 20.817543,218.437378 
	C11.804760,244.701569 6.743138,271.709198 4.048713,299.234192 
	C3.093325,308.993958 2.499577,318.789154 1.370366,328.784088 
	C1.000000,219.751083 1.000000,110.502159 1.000000,1.000000 
	C80.354050,1.000000 159.708359,1.000000 239.531342,1.000001 
z"/>
<path fill="#FCF6F6" opacity="1.000000" stroke="none" 
	d="
M271.541931,1.000000 
	C272.004578,104.803894 272.036224,208.607803 271.971008,312.411652 
	C271.964630,322.564697 270.911743,332.732208 271.246368,342.863251 
	C271.390900,347.239502 273.006470,352.073730 275.396942,355.765472 
	C280.637299,363.858337 282.023499,373.740631 277.688751,380.540558 
	C272.625305,388.483551 262.080505,392.665283 252.497086,390.530731 
	C238.356201,387.381104 230.768173,373.399719 237.994186,361.173340 
	C244.865921,349.546387 245.711304,337.190552 245.648102,324.633179 
	C245.546753,304.505188 243.986664,284.383911 243.910492,264.256531 
	C243.666473,199.777496 243.991180,135.296295 243.729919,70.817398 
	C243.636856,47.850956 242.495163,24.888752 241.916077,1.462306 
	C245.361282,1.000000 248.722580,1.000000 252.474335,1.464416 
	C252.852173,104.737129 252.804779,207.545456 252.878281,310.353699 
	C252.886017,321.169434 253.726166,331.982117 253.952393,342.800995 
	C254.094620,349.602631 252.730362,355.881744 247.540955,361.054932 
	C245.570801,363.018890 244.233002,366.130768 243.709106,368.925995 
	C242.589249,374.900787 245.865387,379.639435 251.955536,382.058868 
	C258.649017,384.718048 265.992493,383.126251 269.677887,378.217438 
	C273.324707,373.359985 273.705353,365.303406 269.279510,361.127075 
	C262.421875,354.656006 261.613342,346.703278 261.880859,338.238861 
	C262.122711,330.586212 262.874420,322.943726 262.943878,315.292603 
	C263.237091,282.977875 263.490784,250.661621 263.510223,218.345795 
	C263.533356,179.858536 263.542236,141.368439 263.108765,102.884613 
	C262.726166,68.919472 261.726929,34.961269 261.000000,1.000000 
	C264.361298,1.000000 267.722565,1.000000 271.541931,1.000000 
z"/>
<path fill="#C10A0A" opacity="1.000000" stroke="none" 
	d="
M260.555847,1.000000 
	C261.726929,34.961269 262.726166,68.919472 263.108765,102.884613 
	C263.542236,141.368439 263.533356,179.858536 263.510223,218.345795 
	C263.490784,250.661621 263.237091,282.977875 262.943878,315.292603 
	C262.874420,322.943726 262.122711,330.586212 261.880859,338.238861 
	C261.613342,346.703278 262.421875,354.656006 269.279510,361.127075 
	C273.705353,365.303406 273.324707,373.359985 269.677887,378.217438 
	C265.992493,383.126251 258.649017,384.718048 251.955536,382.058868 
	C245.865387,379.639435 242.589249,374.900787 243.709106,368.925995 
	C244.233002,366.130768 245.570801,363.018890 247.540955,361.054932 
	C252.730362,355.881744 254.094620,349.602631 253.952393,342.800995 
	C253.726166,331.982117 252.886017,321.169434 252.878281,310.353699 
	C252.804779,207.545456 252.852173,104.737129 252.932404,1.464416 
	C255.370560,1.000000 257.741119,1.000000 260.555847,1.000000 
z"/>
<path fill="#FDF8F8" opacity="1.000000" stroke="none" 
	d="
M228.618393,833.010315 
	C237.270813,822.633423 242.348663,810.385620 247.558960,797.419922 
	C238.679962,793.518982 230.088409,789.744324 220.909393,785.711609 
	C217.282303,791.519714 213.907120,797.590027 209.881897,803.193420 
	C205.347809,809.505066 200.633820,815.786499 195.259521,821.370239 
	C188.690369,828.195374 180.163971,830.724915 170.658493,830.002869 
	C161.759521,829.326843 154.023422,821.458618 154.664108,813.508789 
	C155.206894,806.773865 160.831909,802.105469 167.936966,803.228577 
	C171.794601,803.838379 175.956085,804.981018 179.068619,807.176208 
	C182.347794,809.489014 184.217346,808.695496 186.081192,806.221985 
	C193.864212,795.893005 202.305664,785.951355 209.048050,774.972595 
	C219.126419,758.561829 227.607101,741.176941 237.460175,724.618652 
	C246.439911,709.527954 257.082642,695.664551 272.782684,686.705750 
	C291.344971,676.113708 326.770081,678.855347 341.473816,693.477417 
	C349.965271,701.921753 355.018127,712.345154 358.965576,723.332581 
	C367.785400,747.881531 376.503021,772.471985 384.788666,797.204224 
	C386.479462,802.251038 389.323792,803.694458 393.785461,803.458374 
	C402.086884,803.019348 410.375427,802.338013 418.670044,801.768188 
	C419.320007,801.723450 419.975677,801.762207 421.306915,801.762207 
	C415.040375,812.195007 404.770508,814.105774 394.195496,816.270386 
	C394.349915,824.836365 398.918945,831.259705 403.915771,837.389771 
	C404.463989,838.062317 406.651184,837.513916 408.057800,837.353333 
	C418.037201,836.213867 425.895630,841.736084 427.732300,851.504822 
	C428.634216,856.302002 427.872681,860.887512 423.830505,864.200684 
	C418.797089,868.326355 412.963013,868.069275 407.278809,866.232178 
	C401.176208,864.259827 397.505585,859.284973 394.998077,853.755981 
	C391.093567,845.146606 387.537201,836.367126 384.159363,827.535034 
	C381.582733,820.797913 378.575470,816.409973 369.857544,816.296997 
	C352.094543,816.066772 334.353607,814.208862 316.600922,813.063171 
	C310.434723,812.665283 306.163300,815.152405 302.911316,820.689514 
	C297.104004,830.577576 290.865295,840.237732 284.341614,849.671326 
	C279.482544,856.697815 273.515045,862.770752 264.942627,865.377686 
	C259.581116,867.008179 254.667374,865.955261 250.644470,862.101685 
	C246.817261,858.435730 245.105072,853.890442 246.456360,848.519287 
	C248.104187,841.969360 252.055542,838.499756 258.454742,840.343323 
	C270.932068,843.937988 278.260315,837.862305 283.856964,828.285950 
	C299.219116,801.999695 314.517212,775.534851 321.172119,745.459473 
	C323.428955,735.260132 323.354248,724.304749 322.777954,713.780640 
	C322.089752,701.213013 314.644135,695.292053 301.927277,695.270508 
	C284.606323,695.241272 271.629669,703.826782 260.758179,716.382324 
	C248.213913,730.869690 240.249939,748.145447 231.697784,765.020203 
	C231.004425,766.388306 232.527481,770.485596 233.911407,771.023682 
	C240.022430,773.399658 246.424789,775.083496 252.820541,776.601196 
	C253.667435,776.802185 255.478317,774.817139 256.167664,773.493042 
	C259.926697,766.272522 263.231781,758.808228 267.158417,751.684387 
	C271.715698,743.416321 276.248505,735.050903 281.732300,727.401978 
	C286.824249,720.299438 293.950195,715.496582 303.385529,716.365417 
	C311.589630,717.120850 316.027222,721.076660 316.883026,727.809265 
	C317.699585,734.233093 312.817627,742.483765 305.974701,743.863220 
	C301.106201,744.844727 295.786469,743.587708 289.306793,743.261108 
	C282.563965,751.039246 276.936310,761.561157 272.287933,772.594238 
	C264.939331,790.036194 258.336304,807.804993 250.576309,825.057007 
	C243.810699,840.098389 234.398590,853.496887 219.531555,861.749207 
	C191.699966,877.197754 148.134613,877.006897 122.907486,839.381897 
	C98.323921,802.716797 97.897110,749.371094 122.125763,713.943237 
	C137.990768,690.744934 172.627365,676.528503 199.719299,682.034668 
	C214.003326,684.937744 222.413223,693.770386 225.694260,707.702881 
	C227.631424,715.928772 224.943481,721.537842 218.466843,723.495056 
	C211.268585,725.670410 205.283585,722.585754 202.296661,714.909424 
	C201.470291,712.785645 201.107544,710.431763 200.844223,708.147461 
	C199.869751,699.694031 199.884094,699.983459 191.216553,698.963135 
	C156.537674,694.881042 129.697510,716.074219 120.690056,747.113647 
	C111.273064,779.564331 116.887917,809.627930 139.020203,835.411804 
	C160.779495,860.761230 193.294571,863.198120 220.199646,842.260010 
	C223.046951,839.209900 225.413757,836.559570 227.780579,833.909302 
	C227.780579,833.909302 227.948730,833.883850 228.113922,833.765869 
	C228.503708,833.494690 228.616791,833.282166 228.618393,833.010315 
M367.537384,789.999634 
	C359.809204,767.351196 352.855133,744.386658 340.888672,723.144653 
	C332.425751,749.548706 324.152557,775.360901 315.994751,800.813110 
	C334.251160,800.813110 352.550140,800.813110 371.232086,800.813110 
	C370.037628,797.278564 368.932648,794.008789 367.537384,789.999634 
z"/>
<path fill="#FBF2F2" opacity="1.000000" stroke="none" 
	d="
M349.037140,481.983490 
	C354.829803,462.421417 362.168732,443.654480 363.886505,424.271973 
	C357.243073,423.604492 350.965698,423.204803 344.805664,422.131622 
	C343.756744,421.948944 343.210602,418.880402 342.115417,416.438873 
	C350.156097,415.428070 357.336700,414.525360 365.579224,413.489197 
	C366.229492,403.897858 366.886444,394.207581 367.631042,383.224823 
	C364.164581,384.949097 361.871094,386.089905 358.530334,387.751648 
	C381.941803,358.345581 393.900330,336.516754 393.900574,322.633392 
	C387.455750,323.213928 381.092590,323.835510 374.720642,324.347443 
	C368.450134,324.851196 365.791168,323.140106 363.934784,316.564178 
	C371.686981,315.933075 379.194550,315.161041 386.721802,314.747101 
	C397.810852,314.137268 398.211182,314.302643 399.778748,303.395905 
	C401.309357,292.746124 401.919952,281.964081 402.912537,271.471466 
	C409.122711,274.213074 413.751160,284.052551 411.719055,290.937714 
	C409.799500,297.441437 408.118683,304.015656 406.329041,310.572754 
	C420.691345,313.915649 437.276733,312.598480 441.220612,301.304565 
	C446.211060,302.812622 447.993744,306.180389 446.943420,311.126892 
	C442.944946,329.957916 439.078461,348.819977 434.773010,367.581055 
	C433.419281,373.480072 430.842926,379.098541 428.826172,384.845398 
	C428.062256,384.911774 427.298309,384.978149 426.534393,385.044525 
	C422.047119,373.390991 417.559845,361.737488 413.072571,350.083984 
	C413.558472,349.758057 414.044403,349.432159 414.530304,349.106262 
	C418.225769,353.200989 421.921234,357.295715 426.073822,361.896942 
	C433.342072,347.811066 433.446869,333.180817 436.504059,318.295807 
	C432.362366,318.295807 428.760406,317.994934 425.228668,318.364716 
	C419.613922,318.952606 414.067841,320.371185 408.450134,320.690887 
	C405.052582,320.884216 403.729980,322.043365 402.562836,325.121460 
	C396.067871,342.250366 389.010071,359.191803 376.740143,373.141022 
	C373.034729,377.353607 372.537628,380.585419 373.935486,386.088501 
	C375.969513,394.096130 375.752777,402.675476 376.538269,411.488342 
	C384.799774,413.836243 390.990540,411.103790 397.522095,401.316559 
	C403.630524,404.434387 405.200653,408.635498 404.005157,414.897339 
	C400.767212,431.857147 397.779999,448.869751 395.018616,465.914093 
	C392.784332,479.705017 390.982056,493.563202 385.162598,506.465668 
	C384.758118,507.362427 384.281860,508.226776 383.121613,510.530670 
	C378.243378,498.119537 373.801910,486.819641 369.216400,475.153259 
	C376.654419,474.828003 375.710663,484.116943 382.297394,485.553070 
	C383.662109,482.279694 385.880005,478.964203 386.388794,475.404449 
	C389.090851,456.500183 391.364105,437.534668 393.930206,417.460846 
	C386.840240,418.576691 381.114838,419.313538 375.487213,420.510345 
	C374.437561,420.733551 373.332153,422.694794 373.009186,424.036133 
	C367.746765,445.891510 361.811707,467.544220 351.761200,487.761993 
	C347.926422,495.476105 343.197327,502.768707 338.558899,510.051544 
	C335.853973,514.298523 334.269958,514.092407 331.293274,509.830048 
	C327.300964,504.113403 328.766022,497.719574 328.973450,491.435883 
	C329.686829,469.826447 330.635803,448.215729 330.808380,426.600006 
	C330.990448,403.792969 330.387238,380.979645 330.116425,358.169189 
	C330.108734,357.520996 329.980408,356.874237 329.846588,355.672577 
	C324.825684,356.306427 319.968994,357.117920 315.079437,357.462402 
	C312.145966,357.669067 309.063171,357.546387 306.223999,356.850983 
	C302.623993,355.969269 301.549652,353.012970 301.958099,348.847473 
	C311.056000,347.796692 320.258240,346.733856 330.172638,345.588806 
	C329.525909,320.607910 332.665863,295.351135 326.665009,270.386688 
	C332.445984,271.273865 336.988617,275.491180 337.844818,282.955475 
	C338.803925,291.316620 338.579590,299.846069 338.423981,308.294067 
	C338.240204,318.269867 337.543793,328.235504 337.159882,338.209045 
	C337.098389,339.806671 337.508148,341.422424 337.740784,343.371399 
	C344.862976,342.617889 351.861267,339.133331 358.187927,344.031342 
	C359.787842,345.269989 360.457642,347.709991 361.979370,350.328461 
	C353.821960,351.523834 346.809509,352.551453 338.874756,353.714203 
	C335.732208,403.126404 339.823914,452.957794 336.777832,503.777649 
	C343.643494,497.239716 346.391479,489.858002 349.037140,481.983490 
z"/>
<path fill="#FBF2F2" opacity="1.000000" stroke="none" 
	d="
M49.517181,472.426697 
	C50.143703,470.994690 50.374310,469.056885 51.457859,468.208740 
	C62.583622,459.500153 73.896820,451.031372 85.048874,442.355774 
	C89.499825,438.893219 93.616203,435.003571 98.006729,431.459259 
	C100.811203,429.195312 101.338020,426.559998 100.718750,423.121948 
	C100.132828,419.869049 100.271530,416.485657 100.091530,413.159637 
	C100.633286,413.036560 101.175041,412.913452 101.716797,412.790344 
	C103.144867,415.599823 104.572937,418.409302 106.673851,422.542480 
	C114.342140,414.903748 121.391823,407.881226 128.441513,400.858704 
	C128.114410,400.176178 127.787308,399.493622 127.460205,398.811096 
	C118.941162,399.373657 110.383759,399.603149 101.912315,400.578949 
	C90.033325,401.947235 78.236618,404.016174 66.370140,405.511047 
	C56.811508,406.715149 51.820187,403.841949 49.159595,395.500122 
	C73.793228,394.244629 98.195999,393.000885 123.772980,391.697266 
	C123.772980,384.328217 123.915932,376.931793 123.590553,369.556061 
	C123.550255,368.642761 120.942657,367.007294 119.654358,367.125031 
	C113.059303,367.727753 106.503426,368.772095 99.940277,369.707092 
	C93.408073,370.637634 90.031029,368.568085 88.393784,362.164001 
	C100.161674,361.189331 111.856339,360.220764 124.381721,359.183350 
	C123.927460,353.738342 123.642258,348.637421 123.040108,343.574219 
	C122.435135,338.487305 121.514503,333.437927 120.705643,328.200134 
	C129.365616,329.967834 133.786606,336.729736 132.298325,344.852753 
	C131.593094,348.701843 131.384872,352.641998 130.873322,357.244110 
	C136.809875,356.480804 141.859253,355.718140 146.934158,355.210236 
	C152.236633,354.679565 156.847031,356.160156 159.878754,360.963257 
	C167.832123,355.373413 168.614563,345.949951 174.263931,337.312469 
	C176.854324,343.228058 179.054932,347.913300 180.880066,352.740479 
	C181.202271,353.592621 180.206467,355.261353 179.392609,356.171387 
	C175.189468,360.871033 170.802231,365.405457 166.565689,370.075989 
	C161.629227,375.518127 156.782227,381.041443 151.896393,386.529541 
	C152.260895,387.185699 152.625412,387.841827 152.989914,388.497986 
	C161.808426,387.576263 170.676559,386.977203 179.429794,385.631042 
	C186.466232,384.548889 193.397125,382.694611 200.313522,380.941040 
	C207.750061,379.055664 213.407562,382.091064 216.306412,390.681488 
	C204.005432,391.655579 191.962906,392.734528 179.901443,393.524170 
	C170.457001,394.142487 160.982819,394.296082 151.533600,394.854858 
	C143.943146,395.303711 138.029343,399.105560 133.234375,404.808502 
	C127.482620,411.649445 121.758301,418.513489 115.073822,426.500580 
	C133.850082,424.696655 152.082977,427.201965 168.214935,415.924713 
	C168.910446,416.491302 169.685425,417.350067 170.644974,417.864746 
	C174.684402,420.031464 174.651535,422.694763 173.894531,427.214233 
	C171.817673,439.613556 170.985672,452.231384 169.894531,464.783051 
	C168.786911,477.524261 167.980286,490.291443 166.968124,503.041443 
	C166.881851,504.128204 166.240356,505.170868 165.698013,506.674164 
	C159.651291,502.677826 160.874496,495.814972 158.297775,490.329163 
	C142.076324,491.956604 125.902275,493.579315 109.234894,495.251526 
	C109.025909,499.864532 108.821213,504.383118 108.616508,508.901733 
	C103.070450,504.963409 101.134239,499.563721 101.174614,493.808044 
	C101.244545,483.840271 102.190323,473.882050 102.479431,463.911438 
	C102.714874,455.791351 102.527290,447.659058 102.527290,439.082825 
	C84.850098,450.137054 67.403854,461.046844 49.701736,472.173523 
	C49.445862,472.390411 49.517178,472.426697 49.517181,472.426697 
M162.413879,430.370544 
	C162.039581,427.202545 159.832245,428.102600 157.935806,428.370667 
	C151.515762,429.278046 145.107468,430.275085 138.677353,431.103333 
	C128.814194,432.373688 118.936661,433.532379 109.041885,434.741272 
	C109.041885,442.301514 109.041885,449.375977 109.041885,457.294556 
	C115.314827,456.243042 120.974258,455.231262 126.655327,454.360626 
	C131.897568,453.557251 137.144485,452.630066 142.424179,452.274200 
	C146.611771,451.991943 149.959015,453.880066 152.231064,458.667908 
	C137.448715,460.560547 123.224022,462.381775 109.064583,464.194641 
	C109.064583,472.233795 109.064583,479.470062 109.064583,487.551666 
	C126.479370,485.955444 143.550690,484.390717 161.792191,482.718750 
	C162.085663,466.046082 162.392242,448.628937 162.413879,430.370544 
M131.801239,377.728180 
	C131.611328,381.675995 131.421402,385.623779 131.231827,389.564484 
	C139.899109,390.147217 153.394958,376.785309 158.174713,362.469238 
	C148.893921,363.569244 140.005585,364.622742 130.974228,365.693207 
	C131.256760,370.226074 131.462708,373.530334 131.801239,377.728180 
z"/>
<path fill="#FBF2F2" opacity="1.000000" stroke="none" 
	d="
M418.448486,484.508942 
	C413.281647,494.322906 408.318939,503.818329 403.356262,513.313721 
	C402.834381,513.084351 402.312531,512.854980 401.790680,512.625671 
	C412.809570,481.511536 427.603668,451.455566 429.288269,417.219879 
	C421.754272,416.638123 412.258972,422.064270 407.657043,409.981812 
	C413.997345,409.615051 419.575989,409.142212 425.162292,409.020142 
	C429.120087,408.933655 431.111389,407.803894 431.080566,403.283020 
	C431.031342,396.052612 431.704010,388.817261 432.680328,381.514282 
	C440.068970,388.294281 441.915833,396.707825 440.343292,406.002472 
	C450.785248,409.257721 457.135040,406.716888 462.640686,397.331726 
	C468.527527,399.725220 470.469818,404.749084 469.240601,410.591919 
	C465.313232,429.260315 462.020782,448.061615 458.161713,466.745209 
	C455.611450,479.092255 452.596344,491.346710 449.584442,503.592255 
	C448.935425,506.230988 447.406525,508.653290 446.007172,511.794250 
	C437.335297,500.857391 433.893524,488.368042 429.536530,476.117462 
	C434.377686,480.457428 439.218842,484.797424 444.420044,489.460175 
	C449.925140,476.947449 452.261169,464.561371 453.938843,452.058105 
	C455.443390,440.845306 456.367676,429.555481 457.792816,418.330719 
	C458.222137,414.949219 457.033600,413.489197 453.897400,413.785492 
	C449.276184,414.222168 444.613678,414.689728 440.127594,415.791107 
	C438.856384,416.103210 437.500244,418.574463 437.262451,420.212219 
	C434.038483,442.416229 427.691223,463.689240 418.448486,484.508942 
z"/>
<path fill="#FBF3F3" opacity="1.000000" stroke="none" 
	d="
M73.687973,326.938538 
	C66.347282,327.364105 59.433270,327.829865 55.394737,319.244324 
	C71.384819,312.877991 88.412682,317.359375 105.094841,314.068207 
	C103.210251,303.729736 101.441826,294.028534 99.557251,283.690125 
	C114.737297,289.184753 110.618584,301.686554 111.415123,313.526825 
	C120.770233,312.873474 129.980087,312.238953 139.187805,311.574646 
	C140.179581,311.503082 141.153748,311.212952 142.144745,311.101166 
	C152.189590,309.967682 154.084442,308.295135 154.873245,297.994843 
	C155.349854,291.771393 154.960983,285.481659 154.960983,279.012024 
	C166.074585,281.723907 167.453415,288.971527 160.800781,309.030579 
	C169.378098,307.434509 177.208099,305.676849 185.131439,304.617004 
	C189.805801,303.991730 194.786621,303.738007 199.326813,304.718872 
	C202.247238,305.349792 204.617645,308.526642 207.234589,310.562347 
	C207.021423,311.138489 206.808243,311.714630 206.595078,312.290741 
	C199.384033,313.192657 192.184845,314.207428 184.958679,314.965210 
	C177.520279,315.745209 170.065475,316.487427 162.598724,316.833435 
	C158.164139,317.038940 156.119965,319.309662 154.840897,323.161957 
	C153.116714,328.354889 151.241730,333.505005 149.203629,338.582031 
	C148.576294,340.144745 147.203491,341.408203 146.172043,342.808655 
	C145.557922,342.598724 144.943817,342.388794 144.329712,342.178864 
	C145.584274,336.726379 146.683273,331.232086 148.134232,325.832367 
	C149.812378,319.587097 149.689896,318.823883 143.464111,319.080841 
	C132.702744,319.525085 121.966850,320.586060 110.489288,321.442871 
	C110.489288,330.371704 110.489288,338.589783 110.489288,346.807831 
	C109.820686,346.890533 109.152084,346.973206 108.483482,347.055908 
	C99.691574,340.912598 106.184792,331.296814 103.979034,323.075195 
	C93.994209,321.660614 84.210579,325.556793 73.687973,326.938538 
z"/>
<path fill="#C31718" opacity="1.000000" stroke="none" 
	d="
M227.397583,833.920410 
	C225.413757,836.559570 223.046951,839.209900 220.358124,841.963745 
	C216.465012,838.949463 220.046753,837.427124 221.719833,836.002502 
	C223.083679,834.841187 225.220505,834.587585 227.397583,833.920410 
z"/>
<path fill="#CD3535" opacity="1.000000" stroke="none" 
	d="
M11.975811,663.867004 
	C11.591702,663.171631 11.472102,662.284607 11.507076,661.168762 
	C11.854542,661.851746 12.047431,662.763550 11.975811,663.867004 
z"/>
<path fill="#CD3535" opacity="1.000000" stroke="none" 
	d="
M97.211304,658.407837 
	C97.042107,658.014404 97.027916,657.809814 97.019829,657.297607 
	C97.511078,657.334900 97.996231,657.679810 98.481354,658.024780 
	C98.109665,658.215393 97.737991,658.406006 97.211304,658.407837 
z"/>
<path fill="#FBF2F2" opacity="1.000000" stroke="none" 
	d="
M49.460426,472.426880 
	C49.138218,472.433838 48.801453,472.404358 48.464684,472.374847 
	C48.680305,472.422180 48.895931,472.469482 49.314369,472.471741 
	C49.517178,472.426697 49.445862,472.390411 49.460426,472.426880 
z"/>
<path fill="#C31718" opacity="1.000000" stroke="none" 
	d="
M228.453583,833.073669 
	C228.616791,833.282166 228.503708,833.494690 228.095886,833.682739 
	C227.957581,833.472046 228.082947,833.278503 228.453583,833.073669 
z"/>
<path fill="#C00606" opacity="1.000000" stroke="none" 
	d="
M367.682526,790.369324 
	C368.932648,794.008789 370.037628,797.278564 371.232086,800.813110 
	C352.550140,800.813110 334.251160,800.813110 315.994751,800.813110 
	C324.152557,775.360901 332.425751,749.548706 340.888672,723.144653 
	C352.855133,744.386658 359.809204,767.351196 367.682526,790.369324 
z"/>
<path fill="#C00606" opacity="1.000000" stroke="none" 
	d="
M162.556351,430.791168 
	C162.392242,448.628937 162.085663,466.046082 161.792191,482.718750 
	C143.550690,484.390717 126.479370,485.955444 109.064583,487.551666 
	C109.064583,479.470062 109.064583,472.233795 109.064583,464.194641 
	C123.224022,462.381775 137.448715,460.560547 152.231064,458.667908 
	C149.959015,453.880066 146.611771,451.991943 142.424179,452.274200 
	C137.144485,452.630066 131.897568,453.557251 126.655327,454.360626 
	C120.974258,455.231262 115.314827,456.243042 109.041885,457.294556 
	C109.041885,449.375977 109.041885,442.301514 109.041885,434.741272 
	C118.936661,433.532379 128.814194,432.373688 138.677353,431.103333 
	C145.107468,430.275085 151.515762,429.278046 157.935806,428.370667 
	C159.832245,428.102600 162.039581,427.202545 162.556351,430.791168 
z"/>
<path fill="#C20D0D" opacity="1.000000" stroke="none" 
	d="
M131.734955,377.281372 
	C131.462708,373.530334 131.256760,370.226074 130.974228,365.693207 
	C140.005585,364.622742 148.893921,363.569244 158.174713,362.469238 
	C153.394958,376.785309 139.899109,390.147217 131.231827,389.564484 
	C131.421402,385.623779 131.611328,381.675995 131.734955,377.281372 
z"/>
</svg>